# xmcd
#
# Track frame offsets: 
#        150
#        25187
#        41537
#        60733
#        80385
#        100587
#        118916
#        134660
#        159149
#        180454
#
# Disc length: 2673 seconds
#
# Revision: 0
# Processed by: cddbd v1.5.2PL0 Copyright (c) Steve Scherf et al.
# Submitted via: ExactAudioCopy v0.99pb5
#
DISCID=780a6f0a
DTITLE=Dan Nguyen - Xin lam nguoi tinh co don
DYEAR=1900
DGENRE=Soundtrack
TTITLE0=Xin lam nguoi tinh co don
TTITLE1=Hoa su nha nang
TTITLE2=Tinh ky nu
TTITLE3=Gap nhau lam chi
TTITLE4=Co ua
TTITLE5=Tinh nhu may khoi
TTITLE6=Ve
TTITLE7=Dem lang thang
TTITLE8=Hoi tiec
TTITLE9=Nguoi yeu co don
EXTD=
EXTT0=
EXTT1=
EXTT2=
EXTT3=
EXTT4=
EXTT5=
EXTT6=
EXTT7=
EXTT8=
EXTT9=
PLAYORDER=
